<svg xmlns="http://www.w3.org/2000/svg" xmlns:xlink="http://www.w3.org/1999/xlink" width="140" zoomAndPan="magnify" viewBox="0 0 104.88 30.000001" height="40" preserveAspectRatio="xMidYMid meet" version="1.0"><defs><g/><clipPath id="34ce0951a9"><path d="M 13.136719 2.902344 L 25 2.902344 L 25 14 L 13.136719 14 Z M 13.136719 2.902344 " clip-rule="nonzero"/></clipPath><clipPath id="34ed4f3b34"><path d="M 25 2.902344 L 36.363281 2.902344 L 36.363281 14 L 25 14 Z M 25 2.902344 " clip-rule="nonzero"/></clipPath><clipPath id="ac0af92a22"><path d="M 13.136719 15 L 25 15 L 25 26.128906 L 13.136719 26.128906 Z M 13.136719 15 " clip-rule="nonzero"/></clipPath><clipPath id="a6f7af2144"><path d="M 25 15 L 36.363281 15 L 36.363281 26.128906 L 25 26.128906 Z M 25 15 " clip-rule="nonzero"/></clipPath><clipPath id="87a815b551"><path d="M 42 0 L 91 0 L 91 29.03125 L 42 29.03125 Z M 42 0 " clip-rule="nonzero"/></clipPath><clipPath id="0749e9498a"><path d="M 0.046875 5 L 19 5 L 19 23 L 0.046875 23 Z M 0.046875 5 " clip-rule="nonzero"/></clipPath><clipPath id="d1ecff84fe"><rect x="0" width="49" y="0" height="30"/></clipPath></defs><g clip-path="url(#34ce0951a9)"><path fill="#5170ff" d="M 16.039062 2.902344 L 21.121094 2.902344 C 21.507812 2.902344 21.875 2.976562 22.234375 3.125 C 22.589844 3.273438 22.902344 3.480469 23.175781 3.753906 C 23.445312 4.027344 23.65625 4.339844 23.804688 4.695312 C 23.949219 5.050781 24.023438 5.421875 24.023438 5.804688 L 24.023438 10.886719 C 24.023438 11.273438 23.949219 11.640625 23.804688 12 C 23.65625 12.355469 23.445312 12.667969 23.175781 12.941406 C 22.902344 13.210938 22.589844 13.421875 22.234375 13.570312 C 21.875 13.714844 21.507812 13.789062 21.121094 13.789062 L 16.039062 13.789062 C 15.65625 13.789062 15.285156 13.714844 14.929688 13.570312 C 14.574219 13.421875 14.261719 13.210938 13.988281 12.941406 C 13.714844 12.667969 13.507812 12.355469 13.359375 12 C 13.210938 11.640625 13.136719 11.273438 13.136719 10.886719 L 13.136719 5.804688 C 13.136719 5.421875 13.210938 5.050781 13.359375 4.695312 C 13.507812 4.339844 13.714844 4.027344 13.988281 3.753906 C 14.261719 3.480469 14.574219 3.273438 14.929688 3.125 C 15.285156 2.976562 15.65625 2.902344 16.039062 2.902344 Z M 16.039062 2.902344 " fill-opacity="1" fill-rule="nonzero"/></g><g clip-path="url(#34ed4f3b34)"><path fill="#5170ff" d="M 28.378906 2.902344 L 33.460938 2.902344 C 33.84375 2.902344 34.214844 2.976562 34.570312 3.125 C 34.925781 3.273438 35.242188 3.480469 35.511719 3.753906 C 35.785156 4.027344 35.996094 4.339844 36.140625 4.695312 C 36.289062 5.050781 36.363281 5.421875 36.363281 5.804688 L 36.363281 10.886719 C 36.363281 11.273438 36.289062 11.640625 36.140625 12 C 35.996094 12.355469 35.785156 12.667969 35.511719 12.941406 C 35.242188 13.210938 34.925781 13.421875 34.570312 13.570312 C 34.214844 13.714844 33.84375 13.789062 33.460938 13.789062 L 28.378906 13.789062 C 27.996094 13.789062 27.625 13.714844 27.269531 13.570312 C 26.914062 13.421875 26.597656 13.210938 26.328125 12.941406 C 26.054688 12.667969 25.84375 12.355469 25.699219 12 C 25.550781 11.640625 25.476562 11.273438 25.476562 10.886719 L 25.476562 5.804688 C 25.476562 5.421875 25.550781 5.050781 25.699219 4.695312 C 25.84375 4.339844 26.054688 4.027344 26.328125 3.753906 C 26.597656 3.480469 26.914062 3.273438 27.269531 3.125 C 27.625 2.976562 27.996094 2.902344 28.378906 2.902344 Z M 28.378906 2.902344 " fill-opacity="1" fill-rule="nonzero"/></g><g clip-path="url(#ac0af92a22)"><path fill="#5170ff" d="M 16.039062 15.242188 L 21.121094 15.242188 C 21.507812 15.242188 21.875 15.316406 22.234375 15.464844 C 22.589844 15.609375 22.902344 15.820312 23.175781 16.09375 C 23.445312 16.363281 23.65625 16.679688 23.804688 17.035156 C 23.949219 17.390625 24.023438 17.761719 24.023438 18.144531 L 24.023438 23.226562 C 24.023438 23.609375 23.949219 23.980469 23.804688 24.335938 C 23.65625 24.691406 23.445312 25.007812 23.175781 25.277344 C 22.902344 25.550781 22.589844 25.761719 22.234375 25.90625 C 21.875 26.054688 21.507812 26.128906 21.121094 26.128906 L 16.039062 26.128906 C 15.65625 26.128906 15.285156 26.054688 14.929688 25.90625 C 14.574219 25.761719 14.261719 25.550781 13.988281 25.277344 C 13.714844 25.007812 13.507812 24.691406 13.359375 24.335938 C 13.210938 23.980469 13.136719 23.609375 13.136719 23.226562 L 13.136719 18.144531 C 13.136719 17.761719 13.210938 17.390625 13.359375 17.035156 C 13.507812 16.679688 13.714844 16.363281 13.988281 16.09375 C 14.261719 15.820312 14.574219 15.609375 14.929688 15.464844 C 15.285156 15.316406 15.65625 15.242188 16.039062 15.242188 Z M 16.039062 15.242188 " fill-opacity="1" fill-rule="nonzero"/></g><g clip-path="url(#a6f7af2144)"><path fill="#5170ff" d="M 28.378906 15.242188 L 33.460938 15.242188 C 33.84375 15.242188 34.214844 15.316406 34.570312 15.464844 C 34.925781 15.609375 35.242188 15.820312 35.511719 16.09375 C 35.785156 16.363281 35.996094 16.679688 36.140625 17.035156 C 36.289062 17.390625 36.363281 17.761719 36.363281 18.144531 L 36.363281 23.226562 C 36.363281 23.609375 36.289062 23.980469 36.140625 24.335938 C 35.996094 24.691406 35.785156 25.007812 35.511719 25.277344 C 35.242188 25.550781 34.925781 25.761719 34.570312 25.90625 C 34.214844 26.054688 33.84375 26.128906 33.460938 26.128906 L 28.378906 26.128906 C 27.996094 26.128906 27.625 26.054688 27.269531 25.90625 C 26.914062 25.761719 26.597656 25.550781 26.328125 25.277344 C 26.054688 25.007812 25.84375 24.691406 25.699219 24.335938 C 25.550781 23.980469 25.476562 23.609375 25.476562 23.226562 L 25.476562 18.144531 C 25.476562 17.761719 25.550781 17.390625 25.699219 17.035156 C 25.84375 16.679688 26.054688 16.363281 26.328125 16.09375 C 26.597656 15.820312 26.914062 15.609375 27.269531 15.464844 C 27.625 15.316406 27.996094 15.242188 28.378906 15.242188 Z M 28.378906 15.242188 " fill-opacity="1" fill-rule="nonzero"/></g><g clip-path="url(#87a815b551)"><g transform="matrix(1, 0, 0, 1, 42, 0.000000000000005692)"><g clip-path="url(#d1ecff84fe)"><g fill="#545454" fill-opacity="0.4"><g transform="translate(1.358713, 23.707625)"><g><path d="M 12.375 -3.078125 L 5.875 -3.078125 L 4.84375 0 L 0.390625 0 L 6.703125 -17.421875 L 11.609375 -17.421875 L 17.921875 0 L 13.421875 0 Z M 11.296875 -6.359375 L 9.125 -12.734375 L 7 -6.359375 Z M 11.296875 -6.359375 "/></g></g></g><g fill="#545454" fill-opacity="0.4"><g transform="translate(19.647143, 23.707625)"><g><path d="M 5.78125 -14.015625 L 5.78125 -10.5 L 11.46875 -10.5 L 11.46875 -7.21875 L 5.78125 -7.21875 L 5.78125 -3.40625 L 12.203125 -3.40625 L 12.203125 0 L 1.53125 0 L 1.53125 -17.421875 L 12.203125 -17.421875 L 12.203125 -14.015625 Z M 5.78125 -14.015625 "/></g></g></g><g fill="#545454" fill-opacity="0.4"><g transform="translate(33.071897, 23.707625)"><g><path d="M 7.84375 0.171875 C 6.570312 0.171875 5.429688 -0.03125 4.421875 -0.4375 C 3.410156 -0.851562 2.601562 -1.46875 2 -2.28125 C 1.394531 -3.09375 1.078125 -4.066406 1.046875 -5.203125 L 5.5625 -5.203125 C 5.625 -4.566406 5.84375 -4.078125 6.21875 -3.734375 C 6.601562 -3.390625 7.101562 -3.21875 7.71875 -3.21875 C 8.34375 -3.21875 8.835938 -3.363281 9.203125 -3.65625 C 9.566406 -3.945312 9.75 -4.347656 9.75 -4.859375 C 9.75 -5.296875 9.601562 -5.65625 9.3125 -5.9375 C 9.03125 -6.21875 8.675781 -6.445312 8.25 -6.625 C 7.832031 -6.800781 7.234375 -7.007812 6.453125 -7.25 C 5.328125 -7.59375 4.40625 -7.9375 3.6875 -8.28125 C 2.976562 -8.632812 2.367188 -9.148438 1.859375 -9.828125 C 1.347656 -10.503906 1.09375 -11.390625 1.09375 -12.484375 C 1.09375 -14.097656 1.675781 -15.363281 2.84375 -16.28125 C 4.019531 -17.207031 5.550781 -17.671875 7.4375 -17.671875 C 9.363281 -17.671875 10.910156 -17.207031 12.078125 -16.28125 C 13.253906 -15.363281 13.882812 -14.085938 13.96875 -12.453125 L 9.375 -12.453125 C 9.34375 -13.015625 9.132812 -13.457031 8.75 -13.78125 C 8.375 -14.101562 7.890625 -14.265625 7.296875 -14.265625 C 6.785156 -14.265625 6.367188 -14.128906 6.046875 -13.859375 C 5.734375 -13.585938 5.578125 -13.191406 5.578125 -12.671875 C 5.578125 -12.109375 5.84375 -11.671875 6.375 -11.359375 C 6.90625 -11.046875 7.734375 -10.707031 8.859375 -10.34375 C 9.984375 -9.96875 10.894531 -9.601562 11.59375 -9.25 C 12.300781 -8.90625 12.910156 -8.398438 13.421875 -7.734375 C 13.929688 -7.078125 14.1875 -6.226562 14.1875 -5.1875 C 14.1875 -4.195312 13.929688 -3.296875 13.421875 -2.484375 C 12.921875 -1.671875 12.191406 -1.023438 11.234375 -0.546875 C 10.273438 -0.0664062 9.144531 0.171875 7.84375 0.171875 Z M 7.84375 0.171875 "/></g></g></g><g clip-path="url(#0749e9498a)"><g fill="#ffffff" fill-opacity="1"><g transform="translate(0.261697, 22.610607)"><g><path d="M 12.375 -3.078125 L 5.875 -3.078125 L 4.84375 0 L 0.390625 0 L 6.703125 -17.421875 L 11.609375 -17.421875 L 17.921875 0 L 13.421875 0 Z M 11.296875 -6.359375 L 9.125 -12.734375 L 7 -6.359375 Z M 11.296875 -6.359375 "/></g></g></g></g><g fill="#ffffff" fill-opacity="1"><g transform="translate(18.550126, 22.610607)"><g><path d="M 5.78125 -14.015625 L 5.78125 -10.5 L 11.46875 -10.5 L 11.46875 -7.21875 L 5.78125 -7.21875 L 5.78125 -3.40625 L 12.203125 -3.40625 L 12.203125 0 L 1.53125 0 L 1.53125 -17.421875 L 12.203125 -17.421875 L 12.203125 -14.015625 Z M 5.78125 -14.015625 "/></g></g></g><g fill="#ffffff" fill-opacity="1"><g transform="translate(31.974881, 22.610607)"><g><path d="M 7.84375 0.171875 C 6.570312 0.171875 5.429688 -0.03125 4.421875 -0.4375 C 3.410156 -0.851562 2.601562 -1.46875 2 -2.28125 C 1.394531 -3.09375 1.078125 -4.066406 1.046875 -5.203125 L 5.5625 -5.203125 C 5.625 -4.566406 5.84375 -4.078125 6.21875 -3.734375 C 6.601562 -3.390625 7.101562 -3.21875 7.71875 -3.21875 C 8.34375 -3.21875 8.835938 -3.363281 9.203125 -3.65625 C 9.566406 -3.945312 9.75 -4.347656 9.75 -4.859375 C 9.75 -5.296875 9.601562 -5.65625 9.3125 -5.9375 C 9.03125 -6.21875 8.675781 -6.445312 8.25 -6.625 C 7.832031 -6.800781 7.234375 -7.007812 6.453125 -7.25 C 5.328125 -7.59375 4.40625 -7.9375 3.6875 -8.28125 C 2.976562 -8.632812 2.367188 -9.148438 1.859375 -9.828125 C 1.347656 -10.503906 1.09375 -11.390625 1.09375 -12.484375 C 1.09375 -14.097656 1.675781 -15.363281 2.84375 -16.28125 C 4.019531 -17.207031 5.550781 -17.671875 7.4375 -17.671875 C 9.363281 -17.671875 10.910156 -17.207031 12.078125 -16.28125 C 13.253906 -15.363281 13.882812 -14.085938 13.96875 -12.453125 L 9.375 -12.453125 C 9.34375 -13.015625 9.132812 -13.457031 8.75 -13.78125 C 8.375 -14.101562 7.890625 -14.265625 7.296875 -14.265625 C 6.785156 -14.265625 6.367188 -14.128906 6.046875 -13.859375 C 5.734375 -13.585938 5.578125 -13.191406 5.578125 -12.671875 C 5.578125 -12.109375 5.84375 -11.671875 6.375 -11.359375 C 6.90625 -11.046875 7.734375 -10.707031 8.859375 -10.34375 C 9.984375 -9.96875 10.894531 -9.601562 11.59375 -9.25 C 12.300781 -8.90625 12.910156 -8.398438 13.421875 -7.734375 C 13.929688 -7.078125 14.1875 -6.226562 14.1875 -5.1875 C 14.1875 -4.195312 13.929688 -3.296875 13.421875 -2.484375 C 12.921875 -1.671875 12.191406 -1.023438 11.234375 -0.546875 C 10.273438 -0.0664062 9.144531 0.171875 7.84375 0.171875 Z M 7.84375 0.171875 "/></g></g></g></g></g></g></svg>